# xmcd
#
# Track frame offsets:
#	150
#	10422
#	27669
#	41477
#	49722
#	60462
#	76060
#	87062
#	99420
#	108375
#	119862
#	135157
#	148217
#	159797
#	175445
#	189477
#	200595
#	213927
#	228184
#	239620
#
# Disc length: 3420 seconds
#
# Revision: 0
# Processed by: cddbd v1.4PL0 Copyright (c) Steve Scherf et al.
# Submitted via: EasyCDDAExtractor 4.6.9.1
#
DISCID=0d0d5a14
DTITLE=Monique Gadoua - Hommage A La Famille King
DYEAR=1900
DGENRE=
TTITLE0=Hommage A La Famille King
TTITLE1=Encore Une Fois
TTITLE2=Toujour Paete
TTITLE3=Maman J'ai Besoin De Toi 
TTITLE4=Les Goelans
TTITLE5=Maman Poison
TTITLE6=La Nature Du Printemps
TTITLE7=Je Voudrait Me Trouver Un Homme
TTITLE8=Je Suis Seule Sans Toi
TTITLE9=Je Quitte Mes Parents
TTITLE10=Je Finirai Par T'oublier
TTITLE11=Darling
TTITLE12=Tu Sais Que Je T'aimes
TTITLE13=Coeur De Maman
TTITLE14=Mon Coeur Esty Plein De Larme
TTITLE15=Le Coeur Ne Vieillit Pas
TTITLE16=Attends-moi Oui Attends-moi
TTITLE17=Le Plus Beau Reve
TTITLE18=Chacha Des Amoureux
TTITLE19=Tu T'en Va
EXTD=
EXTT0=
EXTT1=
EXTT2=
EXTT3=
EXTT4=
EXTT5=
EXTT6=
EXTT7=
EXTT8=
EXTT9=
EXTT10=
EXTT11=
EXTT12=
EXTT13=
EXTT14=
EXTT15=
EXTT16=
EXTT17=
EXTT18=
EXTT19=
PLAYORDER=
